<?xml version="1.0" encoding="utf-8"?>
<!-- Generator: Adobe Illustrator 13.0.0, SVG Export Plug-In . SVG Version: 6.00 Build 14948)  -->
<!DOCTYPE svg PUBLIC "-//W3C//DTD SVG 1.1//EN" "http://www.w3.org/Graphics/SVG/1.1/DTD/svg11.dtd">
<svg version="1.1" id="Layer_1" xmlns="http://www.w3.org/2000/svg" xmlns:xlink="http://www.w3.org/1999/xlink" x="0px" y="0px"
	 width="600px" height="300px" viewBox="0 0 600 300" enable-background="new 0 0 600 300" xml:space="preserve">
<path fill="#3C823D" d="M407.044,267.777H378.55v-21.369H221.833v21.369H193.34v-21.369h-71.235
	c0,29.505,23.919,53.426,53.426,53.426h249.32c29.508,0,53.428-23.921,53.428-53.426h-71.234V267.777z"/>
<path fill="#3C823D" d="M374.988,61.198V32.704c0-17.673-14.379-32.055-32.057-32.055H257.45c-17.676,0-32.056,14.382-32.056,32.055
	v28.494h-103.29v170.963h71.235v-46.304h28.494v46.304H378.55v-46.304h28.494v46.304h71.234V61.198H374.988z M253.89,32.704
	c0-1.961,1.596-3.562,3.561-3.562h85.481c1.966,0,3.563,1.6,3.563,3.562v28.494H253.89V32.704z"/>
</svg>
