<?xml version="1.0" encoding="utf-8"?>
<!-- Generator: Adobe Illustrator 13.0.0, SVG Export Plug-In . SVG Version: 6.00 Build 14948)  -->
<!DOCTYPE svg PUBLIC "-//W3C//DTD SVG 1.1//EN" "http://www.w3.org/Graphics/SVG/1.1/DTD/svg11.dtd">
<svg version="1.1" id="Layer_1" xmlns="http://www.w3.org/2000/svg" xmlns:xlink="http://www.w3.org/1999/xlink" x="0px" y="0px"
	 width="600px" height="300px" viewBox="0 0 600 300" enable-background="new 0 0 600 300" xml:space="preserve">
<path fill="#439D42" d="M335.038,1.661c13.632,0,24.709,11.062,24.709,24.704c0,13.645-11.077,24.66-24.709,24.66
	c-13.63,0-24.67-11.016-24.67-24.66C310.368,12.723,321.408,1.661,335.038,1.661z"/>
<path fill="#439D42" d="M268.053,51.264c-0.214-10.966-9.277-19.668-20.218-19.434c-10.966,0.211-19.68,9.273-19.443,20.227
	c0.22,10.951,9.283,19.671,20.221,19.437C259.573,71.286,268.268,62.215,268.053,51.264z"/>
<path fill="#439D42" d="M228.404,89.226c-6.772,0.585-12.088,6.272-12.088,13.201c0,6.936,5.313,12.597,12.088,13.179V89.226z"/>
<path fill="#439D42" d="M420.287,202.732c10.936,0.231,20.007-8.486,20.221-19.44c0.239-10.951-8.478-20.015-19.438-20.224
	c-10.941-0.233-20.006,8.469-20.22,19.435C400.63,193.457,409.326,202.523,420.287,202.732z"/>
<path fill="#439D42" d="M441.353,281.604h-20.906v-9.576c7.647-1.187,13.498-7.637,13.572-15.592
	c0.114-13.123,0.253-19.898,0.359-33c0.056-7.268-4.179-13.838-11.849-15.826c-0.97-0.44-3.274-0.694-4.583-0.694
	c-4.765,0.003-9.805,0.047-16.143,0.063v0.119h-35.333V91.712h8.479l0.021,71.824c0,5.878,4.78,10.627,10.637,10.627
	c5.86,0,10.627-4.749,10.627-10.627V84.109c0-17.481-14.738-27.394-31.874-27.394h-32.163h-26.053h-2.51v0.09
	c-13.073,0.755-24.333,7.396-28.045,18.832h13.783c4.709,0,8.518,3.729,8.518,8.326c0,4.585-3.809,8.328-8.518,8.328l-23.82,0.006
	V75.734c-5.789-0.023-11.369-0.056-15.744-0.062c-1.313,0-2.465,0.255-3.436,0.693c-6.678,2.009-11.905,8.562-11.845,15.826
	c0.104,13.106,0.241,19.879,0.355,33c0.09,8.798,7.193,15.813,16.023,15.837c0.411,0,0.773-0.056,1.168-0.08
	c0.083,0.006,0.158,0.029,0.243,0.029h24.861v26.944c0,5.136,4.157,9.293,9.288,9.293c5.132,0,9.292-4.157,9.292-9.293v-36.237
	c0-5.132-4.16-9.288-9.292-9.288h-19.4c0-1.538,0-4.056,0-7.018h24.994c1.452,0.187,5.734,0.913,8.093,3.229
	c2.753,2.708,3.351,6.012,3.474,7.588L303.6,286.5c0,7.713,6.227,13.938,13.913,13.938c7.705,0,13.153-6.225,13.153-13.938V165.863
	h8.825V286.5c0,7.713,5.368,13.938,13.063,13.938c7.705,0,13.924-6.225,13.924-13.938v-60.83h35.514l-0.121,65.225
	c0,5.131,4.155,9.289,9.292,9.289h30.195c5.135,0,9.294-4.158,9.294-9.289S446.487,281.604,441.353,281.604z"/>
<g>
	<g>
		<path fill="#439D42" d="M288.87,220.459l7.806-16.775l-55.202-26.299v41.879h-64.517l-13.275-6.646
			c-2.551-1.463-5.802-0.563-7.24,1.987c-1.446,2.554-0.563,5.781,1.988,7.24l17.888,9.346v60.263c0,5.069,4.108,9.162,9.171,9.162
			c5.068,0,9.176-4.089,9.176-9.162l-0.021-23.599l16.625,28.07c2.589,4.354,8.223,5.773,12.589,3.182
			c4.335-2.584,5.764-8.25,3.173-12.604l-15.476-26.044h34.718v30.993c0,5.07,4.09,9.162,9.155,9.162
			c5.069,0,9.195-4.088,9.195-9.162V260.46c2.737,0,3.003-1.805,3.003-3.901v-23.121l-0.035-0.018v-12.922L288.87,220.459z"/>
		<polygon fill="#439D42" points="178.198,214.459 166.34,201.014 171.083,196.834 182.941,210.273 		"/>
		<polygon fill="#439D42" points="168.707,238.454 152.897,238.454 152.897,232.133 168.707,232.133 		"/>
	</g>
</g>
</svg>
