<?xml version="1.0" encoding="utf-8"?>
<!-- Generator: Adobe Illustrator 13.0.0, SVG Export Plug-In . SVG Version: 6.00 Build 14948)  -->
<!DOCTYPE svg PUBLIC "-//W3C//DTD SVG 1.1//EN" "http://www.w3.org/Graphics/SVG/1.1/DTD/svg11.dtd">
<svg version="1.1" id="Layer_1" xmlns="http://www.w3.org/2000/svg" xmlns:xlink="http://www.w3.org/1999/xlink" x="0px" y="0px"
	 width="600px" height="300px" viewBox="0 0 600 300" enable-background="new 0 0 600 300" xml:space="preserve">
<path fill="#3F8E3F" d="M272.084,301.117c4.784,0,8.63-3.908,8.63-8.737c0-4.803-3.849-8.688-8.63-8.688
	c-4.762,0-8.61,3.896-8.61,8.688C263.474,297.197,267.322,301.117,272.084,301.117z"/>
<path fill="#3F8E3F" d="M341.793,300.939c4.781,0,8.653-3.937,8.653-8.816c0-4.822-3.872-8.746-8.653-8.746
	c-4.74,0-8.584,3.924-8.584,8.746C333.209,297.005,337.053,300.939,341.793,300.939z"/>
<path fill="#3F8E3F" d="M255.055,275.125c0,0-5.063-0.258-5.063-5.529v-0.479c0-5.188,5.063-5.539,5.063-5.539h103.42
	c0,0,5.084,0.479,5.084,5.539v0.479c0,5.063-5.084,5.529-5.084,5.529H255.055z"/>
<path fill="#3F8E3F" d="M326.91,47.4c12.633,0,22.904-10.392,22.904-23.186c0-12.778-10.271-23.098-22.904-23.098
	s-22.913,10.319-22.913,23.095C303.997,37.006,314.277,47.4,326.91,47.4z"/>
<path fill="#3F8E3F" d="M202.612,249.852c-1.082,2.054-1.686,4.371-1.686,6.883c0,8.141,6.553,14.771,14.671,14.771
	c5.816,0,10.815-3.414,13.2-8.331l49.998-86.883l-20.765-20.973L202.612,249.852z"/>
<path fill="#3F8E3F" d="M303.016,245.951c-2.168,4.928-6.771,8.345-12.138,8.345c-7.415,0-13.458-6.633-13.458-14.767
	c0-2.54,0.564-4.863,1.555-6.92l20.061-38.66l-39.12-42.662c-15.015-16.556-4.314-34.451-4.314-34.451l21.06-40.811l-55.851,0.071
	c-6.177,0-11.088-5.476-11.088-12.166c0-6.626,4.911-12.095,11.088-12.095H389.87c6.102,0,11.027,5.468,11.027,12.164
	c0,6.69-4.928,12.097-11.027,12.097h-64.497l-30.768,59.124l31.321,33.968c10.966,11.549,3.867,24.545,3.867,24.545L303.016,245.951
	z"/>
</svg>
